<svg width="168" height="192" viewBox="0 0 168 192" fill="none" xmlns="http://www.w3.org/2000/svg"><rect x="164.988" y="167.081" width="2.84551" height="20.7461" fill="#fff"/><path d="M164.988 160.683c1.572.0 2.846 1.274 2.846 2.845V164.099h-2.846v-3.416z" fill="#fff"/><path d="M20.7486 161.449C21.2686 161.969 21.515 162.598 21.515 163.337H12.4574v24.49H9.58473v-24.49H3.15392C2.41528 163.337 1.75858 163.063 1.26576 162.543.746984 161.996.5 161.394.5 160.655H18.8333C19.5991 160.655 20.2287 160.929 20.7486 161.449z" fill="#fff"/><path d="M90.1996 161.449C90.9654 160.929 91.8408 160.683 92.771 160.683L80.2113 187.854 67.6797 160.683C68.637 160.683 69.513 160.957 70.3065 161.504S71.6476 162.762 72.0031 163.638L80.2113 181.397 88.5296 163.556C88.8586 162.653 89.4333 161.969 90.1996 161.449z" fill="#fff"/><path d="M113.43 187.827H96.3008V160.655H113.321v2.655H99.1192V172.695H110.366C110.366 173.434 110.119 174.036 109.599 174.556 109.107 175.075 108.477 175.322 107.766 175.322H99.1469V185.145H113.458L113.43 187.827z" fill="#fff"/><path d="M120.906 185.145V163.501C120.906 162.707 120.633 162.051 120.058 161.504 119.511 160.956 118.826 160.655 118.061 160.655v27.172h12.723L132.125 185.145H120.906z" fill="#fff"/><path d="M148.38 160.71l-15.405 30.948h3.119l12.259-24.737 5.637 11.384h-5.364C147.696 178.332 146.957 178.578 146.41 179.043S145.452 180.001 145.178 180.548L145.014 180.904h10.289L158.75 187.854h3.12L148.38 160.71z" fill="#fff"/><path d="M167.829 142.38 83.7734.0 107.045 120.291l60.784 22.089z" fill="#fff"/><path d="M3.80469 146.159 167.828 146.157 52.4547 104.226 3.80469 146.159z" fill="#fff"/><path d="M92.622 64.8195 81.0074 4.78809.5 144.221 92.622 64.8195z" fill="#fff"/><path d="M27.9197 187.827V163.364h6.3754c2.4081.0 4.1595.492999999999995 5.2265 1.505S41.1362 167.168 41.1362 168.673 40.5615 171.491 39.4125 172.585c-1.1495 1.095-2.8732 1.642-5.1445 1.642H33.83C33.4745 174.227 33.201 174.364 32.9817 174.583 32.763 174.829 32.6534 175.075 32.6534 175.404 32.6534 175.623 32.7082 175.842 32.8727 176.06L33.5565 176.99 39.4125 185.035C40.0416 185.911 40.8627 186.595 41.8201 187.088 42.6383 187.509 43.5362 187.748 44.463 187.827H44.9195l-8.353-11.493C38.7282 176.061 40.5067 175.267 41.902 173.926 43.325 172.586 44.0094 170.807 44.0094 168.563 44.0094 167.113 43.6534 165.772 42.9696 164.596 42.2852 163.419 41.2182 162.461 39.7951 161.75 38.3727 161.038 36.5936 160.683 34.4596 160.683H25.0742v27.144h2.8455z" fill="#fff"/><path d="M67.1564 178.332H61.7931C60.8629 178.359 60.1243 178.606 59.5766 179.071 59.0296 179.536 58.6193 180.029 58.3452 180.576L58.1813 180.932H68.4698L71.8906 187.827H75.0235l-13.4491-27.09-13.4767 27.09h3.0919l10.33-20.878L67.1564 178.332z" fill="#fff"/><rect x="164.988" y="164.099" width="2.84551" height="1" fill="#fff"/></svg>