<svg width="434" height="80" viewBox="0 0 434 80" fill="none" xmlns="http://www.w3.org/2000/svg"><path d="M45.3672.0 58.0469 65.54 91.1647 77.575 45.3672.0z" fill="#fff"/><path d="M1.79688 79.6366 91.1644 79.6357 28.3036 56.7891 1.79688 79.6366z" fill="#fff"/><path d="M0 78.5792 50.1924 35.3174 43.8646 2.60938.0 78.5792z" fill="#fff"/><rect x="428.242" y="24.9219" width="5.75931" height="41.9868" fill="#fff"/><path d="M428.242 11.9688C431.423 11.9688 434.002 14.5472 434.002 17.7285v1.1544H428.242V11.9688z" fill="#fff"/><path d="M136.317 13.5201C137.37 14.5725 137.868 15.8463 137.868 17.3415H119.537V66.9066H113.722V17.3415H100.708C99.2127 17.3415 97.8835 16.7873 96.8866 15.7354 95.8342 14.6276 95.3359 13.4092 95.3359 11.9141H132.441C133.991 11.9141 135.265 12.4678 136.317 13.5201z" fill="#fff"/><path d="M276.875 13.5194C278.425 12.467 280.197 11.9688 282.08 11.9688L256.661 66.9613 231.297 11.9688C233.235 11.9688 235.007 12.5225 236.613 13.6303c1.607 1.1074 2.714 2.5475 3.434 4.3196l16.614 35.9417 16.836-36.1081C274.161 15.956 275.324 14.5718 276.875 13.5194z" fill="#fff"/><path d="M323.895 66.9061H289.227V11.9141h34.446v5.3715H294.931V36.2809h22.761C317.692 37.7769 317.193 38.9944 316.141 40.0468 315.144 41.0987 313.871 41.5978 312.431 41.5978H294.986V61.4787H323.95L323.895 66.9061z" fill="#fff"/><path d="M339.026 61.4791V17.6734C339.026 16.0673 338.472 14.7385 337.309 13.6306 336.201 12.5232 334.816 11.9141 333.266 11.9141v54.992h25.752L361.731 61.4791H339.026z" fill="#fff"/><path d="M394.624 12.0234 363.445 74.6586H369.758l24.811-50.0638 11.408 23.0385H395.123C393.24 47.6883 391.745 48.187 390.637 49.1285 389.529 50.0699 388.699 51.0669 388.145 52.1743L387.813 52.8943h20.822L415.614 66.9609H421.927L394.624 12.0234z" fill="#fff"/><path d="M150.822 66.905V17.3957h12.904C168.599 17.3957 172.144 18.3922 174.303 20.4411c2.16 2.0493 3.268 4.6519 3.268 7.6981.0 3.0458-1.16300000000001 5.7039-3.489 7.9195C171.756 38.2736 168.267 39.381 163.671 39.381H162.784C162.064 39.381 161.511 39.6582 161.067 40.101 160.625 40.5993 160.403 41.0975 160.403 41.7626 160.403 42.2054 160.514 42.649 160.846 43.0914L162.231 44.9743l11.851 16.2819C175.356 63.0282 177.017 64.4129 178.955 65.4098 180.611 66.2611 182.429 66.7462 184.304 66.905H185.228L168.322 43.6455C172.697 43.0918 176.297 41.4857 179.121 38.7722 182.001 36.0592 183.386 32.4588 183.386 27.9174 183.386 24.9829 182.666 22.2686 181.282 19.8874 179.897 17.5062 177.737 15.5683 174.857 14.1285 171.977 12.6884 168.378 11.9688 164.058 11.9688H145.062V66.905H150.822z" fill="#fff"/><path d="M230.237 47.6875H219.382C217.499 47.743 216.004 48.2413 214.896 49.1827 213.789 50.1246 212.958 51.1211 212.404 52.229L212.072 52.9486h20.823l6.923 13.9557H246.159l-27.22-54.8262-27.275 54.8262H197.922l20.906-42.2548 11.409 23.038z" fill="#fff"/><rect x="428.242" y="18.8828" width="5.75973" height="1" fill="#fff"/></svg>